<svg width="24" height="24" viewBox="0 0 24 24" fill="none" xmlns="http://www.w3.org/2000/svg">
<path d="M19.8368 8.43673L10.2367 18.0367C10.1531 18.1206 10.0538 18.1872 9.94439 18.2326C9.83499 18.2781 9.7177 18.3014 9.59925 18.3014C9.4808 18.3014 9.36351 18.2781 9.25411 18.2326C9.14472 18.1872 9.04536 18.1206 8.96175 18.0367L4.76175 13.8367C4.67803 13.753 4.61162 13.6536 4.56632 13.5442C4.52101 13.4349 4.49769 13.3176 4.49769 13.1992C4.49769 13.0808 4.52101 12.9636 4.56632 12.8542C4.61162 12.7448 4.67803 12.6454 4.76175 12.5617C4.84547 12.478 4.94485 12.4116 5.05424 12.3663C5.16362 12.321 5.28085 12.2977 5.39925 12.2977C5.51764 12.2977 5.63488 12.321 5.74426 12.3663C5.85364 12.4116 5.95303 12.478 6.03675 12.5617L9.6 16.125L18.5632 7.16323C18.7323 6.99416 18.9616 6.89917 19.2007 6.89917C19.4399 6.89917 19.6692 6.99416 19.8382 7.16323C20.0073 7.33231 20.1023 7.56162 20.1023 7.80073C20.1023 8.03984 20.0073 8.26916 19.8382 8.43823L19.8368 8.43673Z" fill="black"/>
</svg>
